<svg version="1.2" baseProfile="tiny-ps" xmlns="http://www.w3.org/2000/svg" viewBox="0 0 800 800" width="50" height="50">
	<title>字体-svg</title>
	<style>
		tspan { white-space:pre }
		.s0 { fill: #ededed } 
	</style>
	<path fill-rule="evenodd" class="s0" d="m768 0c17.67 0 32 14.33 32 32v736c0 17.67-14.33 32-32 32h-736c-17.67 0-32-14.33-32-32v-736c0-17.67 14.33-32 32-32h736zm-144 163h-447c-8.84 0-16 7.16-16 16v96c0 8.84 7.16 16 16 16h32c8.84 0 16-7.16 16-16v-48h144v347h-64c-8.84 0-16 7.16-16 16v32c0 8.84 7.16 16 16 16h191c8.84 0 16-7.16 16-16v-32c0-8.84-7.16-16-16-16h-63v-347h143v48c0 8.84 7.16 16 16 16h32c8.84 0 16-7.16 16-16v-96c0-8.84-7.16-16-16-16z" />
	<path class="s0" d="m0 0h70v800h-70v-800z" />
	<path class="s0" d="m752 0h48v800h-48v-800z" />
</svg>