<?xml version="1.0" standalone="no"?><!DOCTYPE svg PUBLIC "-//W3C//DTD SVG 1.1//EN" "http://www.w3.org/Graphics/SVG/1.1/DTD/svg11.dtd"><svg t="1628433901942" class="icon" viewBox="0 0 1024 1024" version="1.1" xmlns="http://www.w3.org/2000/svg" p-id="13182" width="200" height="200" xmlns:xlink="http://www.w3.org/1999/xlink"><defs><style type="text/css"></style></defs><path d="M867.8 485l0.4-308c0-9.6-7.8-17.4-17.4-17.4l-308 0.4c-4.6 0-9 1.8-12.3 5.1L117.1 578.4c-6.8 6.8-6.8 17.8 0 24.6l307.6 307.6c6.8 6.8 17.8 6.8 24.6 0l413.4-413.4c3.2-3.2 5.1-7.6 5.1-12.2zM653.6 371c-25-25-25-65.6 0-90.6s65.6-25 90.6 0 25 65.6 0 90.6c-25.1 25-65.6 25-90.6 0z" fill="#4285f4" p-id="13183"></path></svg>